<svg width="24" height="24" viewBox="0 0 24 24" fill="none" xmlns="http://www.w3.org/2000/svg">
<path fill-rule="evenodd" clip-rule="evenodd" d="M3.12416 3.0006L7.29234 5.41047L16.6516 0C17.1347 0.20467 17.6031 0.441 18.0535 0.706335L7.29234 6.92731L2.28906 4.03314C2.54839 3.67425 2.82723 3.32885 3.12416 3.0006ZM7.2924 8.44508L1.57759 5.14054C1.36053 5.5219 1.16441 5.9153 0.990234 6.31811L7.2922 9.96049L20.3203 2.42979C19.9868 2.10726 19.6344 1.80414 19.2659 1.52246L7.2924 8.44508ZM0.529117 7.56856L7.29222 11.4769L21.2343 3.41797C21.2741 3.46597 21.3133 3.51438 21.3521 3.56299C21.4245 3.65226 21.4958 3.74336 21.5653 3.83527C21.7241 4.04566 21.8757 4.26095 22.0206 4.48115L7.29222 12.9964L0.203125 8.89707C0.228733 8.75695 0.257796 8.61764 0.288281 8.47895C0.357585 8.17174 0.437254 7.8678 0.529117 7.56856ZM0.0274217 10.3121L7.29252 14.5119L22.6798 5.61698C23.2667 6.77126 23.664 8.01705 23.8608 9.30042C23.9374 9.80311 23.9825 10.3042 23.9955 10.8005C23.9984 10.9059 24 11.0113 24 11.1171C24 11.6833 23.9606 12.241 23.8858 12.7861C23.8547 13.008 23.8179 13.228 23.7748 13.4461C23.4433 15.139 22.7542 16.7272 21.7742 18.1094C20.8429 19.4242 19.6499 20.553 18.2569 21.4096C16.815 22.2955 15.1883 22.8642 13.5134 23.0793C13.1167 23.1303 12.7218 23.1612 12.3299 23.1724H11.6617C10.928 23.1518 10.2104 23.0654 9.51553 22.9185C9.02329 22.8113 8.53633 22.6761 8.06726 22.5114C6.99133 22.1348 5.96823 21.6041 5.0429 20.9417C3.6682 19.9573 2.49837 18.6842 1.63421 17.1929C0.951132 16.0206 0.45808 14.7138 0.200173 13.3037C0.0581104 12.5259 -0.00916091 11.7366 0.00100093 10.9486C0.00404948 10.7343 0.0133984 10.5223 0.0274217 10.3121Z" fill="#17BB4F"/>
</svg>
