<svg width="73" height="17" viewBox="0 0 73 17" fill="none" xmlns="http://www.w3.org/2000/svg">
    <path d="M9.6875 9.39062C9.54688 10.5938 9.10156 11.5234 8.35156 12.1797C7.60677 12.8307 6.61458 13.1562 5.375 13.1562C4.03125 13.1562 2.95312 12.6745 2.14062 11.7109C1.33333 10.7474 0.929688 9.45833 0.929688 7.84375V6.75C0.929688 5.69271 1.11719 4.76302 1.49219 3.96094C1.8724 3.15885 2.40885 2.54427 3.10156 2.11719C3.79427 1.6849 4.59635 1.46875 5.50781 1.46875C6.71615 1.46875 7.6849 1.80729 8.41406 2.48438C9.14323 3.15625 9.56771 4.08854 9.6875 5.28125H8.17969C8.04948 4.375 7.76562 3.71875 7.32812 3.3125C6.89583 2.90625 6.28906 2.70312 5.50781 2.70312C4.54948 2.70312 3.79688 3.05729 3.25 3.76562C2.70833 4.47396 2.4375 5.48177 2.4375 6.78906V7.89062C2.4375 9.125 2.69531 10.1068 3.21094 10.8359C3.72656 11.5651 4.44792 11.9297 5.375 11.9297C6.20833 11.9297 6.84635 11.7422 7.28906 11.3672C7.73698 10.987 8.03385 10.3281 8.17969 9.39062H9.6875ZM15.2266 5.03125C16.2891 5.03125 17.138 5.38802 17.7734 6.10156C18.4141 6.8099 18.7344 7.74479 18.7344 8.90625V9.03906C18.7344 9.83594 18.5807 10.5495 18.2734 11.1797C17.9661 11.8047 17.5234 12.2917 16.9453 12.6406C16.3724 12.9844 15.7109 13.1562 14.9609 13.1562C13.8255 13.1562 12.9115 12.7786 12.2188 12.0234C11.526 11.263 11.1797 10.2448 11.1797 8.96875V8.26562C11.1797 6.48958 11.5078 5.07812 12.1641 4.03125C12.8255 2.98438 13.7995 2.34635 15.0859 2.11719C15.8151 1.98698 16.3073 1.82812 16.5625 1.64062C16.8177 1.45312 16.9453 1.19531 16.9453 0.867188H18.1328C18.1328 1.51823 17.9844 2.02604 17.6875 2.39062C17.3958 2.75521 16.9271 3.01302 16.2812 3.16406L15.2031 3.40625C14.3438 3.60938 13.6979 3.95312 13.2656 4.4375C12.8385 4.91667 12.5599 5.55729 12.4297 6.35938C13.1953 5.47396 14.1276 5.03125 15.2266 5.03125ZM14.9453 6.21875C14.237 6.21875 13.6745 6.45833 13.2578 6.9375C12.8411 7.41146 12.6328 8.07031 12.6328 8.91406V9.03906C12.6328 9.94531 12.8411 10.6641 13.2578 11.1953C13.6797 11.7214 14.2474 11.9844 14.9609 11.9844C15.6797 11.9844 16.2474 11.7188 16.6641 11.1875C17.0807 10.6562 17.2891 9.88021 17.2891 8.85938C17.2891 8.0625 17.0781 7.42448 16.6562 6.94531C16.2396 6.46094 15.6693 6.21875 14.9453 6.21875ZM23.8672 13.1562C22.7214 13.1562 21.7891 12.7812 21.0703 12.0312C20.3516 11.276 19.9922 10.2682 19.9922 9.00781V8.74219C19.9922 7.90365 20.151 7.15625 20.4688 6.5C20.7917 5.83854 21.2396 5.32292 21.8125 4.95312C22.3906 4.57812 23.0156 4.39062 23.6875 4.39062C24.7865 4.39062 25.6406 4.7526 26.25 5.47656C26.8594 6.20052 27.1641 7.23698 27.1641 8.58594V9.1875H21.4375C21.4583 10.0208 21.7005 10.6953 22.1641 11.2109C22.6328 11.7214 23.2266 11.9766 23.9453 11.9766C24.4557 11.9766 24.888 11.8724 25.2422 11.6641C25.5964 11.4557 25.9062 11.1797 26.1719 10.8359L27.0547 11.5234C26.3464 12.612 25.2839 13.1562 23.8672 13.1562ZM23.6875 5.57812C23.1042 5.57812 22.6146 5.79167 22.2188 6.21875C21.8229 6.64062 21.5781 7.23438 21.4844 8H25.7188V7.89062C25.6771 7.15625 25.4792 6.58854 25.125 6.1875C24.7708 5.78125 24.2917 5.57812 23.6875 5.57812ZM35.9844 8.86719C35.9844 10.1536 35.6901 11.1901 35.1016 11.9766C34.513 12.763 33.7161 13.1562 32.7109 13.1562C31.6849 13.1562 30.8776 12.8307 30.2891 12.1797V16.25H28.8438V4.54688H30.1641L30.2344 5.48438C30.8229 4.75521 31.6406 4.39062 32.6875 4.39062C33.7031 4.39062 34.5052 4.77344 35.0938 5.53906C35.6875 6.30469 35.9844 7.36979 35.9844 8.73438V8.86719ZM34.5391 8.70312C34.5391 7.75 34.3359 6.9974 33.9297 6.44531C33.5234 5.89323 32.9661 5.61719 32.2578 5.61719C31.3828 5.61719 30.7266 6.00521 30.2891 6.78125V10.8203C30.7214 11.5911 31.3828 11.9766 32.2734 11.9766C32.9661 11.9766 33.5156 11.7031 33.9219 11.1562C34.3333 10.6042 34.5391 9.78646 34.5391 8.70312ZM41.5391 5.03125C42.6016 5.03125 43.4505 5.38802 44.0859 6.10156C44.7266 6.8099 45.0469 7.74479 45.0469 8.90625V9.03906C45.0469 9.83594 44.8932 10.5495 44.5859 11.1797C44.2786 11.8047 43.8359 12.2917 43.2578 12.6406C42.6849 12.9844 42.0234 13.1562 41.2734 13.1562C40.138 13.1562 39.224 12.7786 38.5312 12.0234C37.8385 11.263 37.4922 10.2448 37.4922 8.96875V8.26562C37.4922 6.48958 37.8203 5.07812 38.4766 4.03125C39.138 2.98438 40.112 2.34635 41.3984 2.11719C42.1276 1.98698 42.6198 1.82812 42.875 1.64062C43.1302 1.45312 43.2578 1.19531 43.2578 0.867188H44.4453C44.4453 1.51823 44.2969 2.02604 44 2.39062C43.7083 2.75521 43.2396 3.01302 42.5938 3.16406L41.5156 3.40625C40.6562 3.60938 40.0104 3.95312 39.5781 4.4375C39.151 4.91667 38.8724 5.55729 38.7422 6.35938C39.5078 5.47396 40.4401 5.03125 41.5391 5.03125ZM41.2578 6.21875C40.5495 6.21875 39.987 6.45833 39.5703 6.9375C39.1536 7.41146 38.9453 8.07031 38.9453 8.91406V9.03906C38.9453 9.94531 39.1536 10.6641 39.5703 11.1953C39.9922 11.7214 40.5599 11.9844 41.2734 11.9844C41.9922 11.9844 42.5599 11.7188 42.9766 11.1875C43.3932 10.6562 43.6016 9.88021 43.6016 8.85938C43.6016 8.0625 43.3906 7.42448 42.9688 6.94531C42.5521 6.46094 41.9818 6.21875 41.2578 6.21875ZM51.8906 13C51.8073 12.8333 51.7396 12.5365 51.6875 12.1094C51.0156 12.8073 50.2135 13.1562 49.2812 13.1562C48.4479 13.1562 47.763 12.9219 47.2266 12.4531C46.6953 11.9792 46.4297 11.3802 46.4297 10.6562C46.4297 9.77604 46.763 9.09375 47.4297 8.60938C48.1016 8.11979 49.0443 7.875 50.2578 7.875H51.6641V7.21094C51.6641 6.70573 51.513 6.30469 51.2109 6.00781C50.9089 5.70573 50.4635 5.55469 49.875 5.55469C49.3594 5.55469 48.9271 5.6849 48.5781 5.94531C48.2292 6.20573 48.0547 6.52083 48.0547 6.89062H46.6016C46.6016 6.46875 46.75 6.0625 47.0469 5.67188C47.349 5.27604 47.7552 4.96354 48.2656 4.73438C48.7812 4.50521 49.3464 4.39062 49.9609 4.39062C50.9349 4.39062 51.6979 4.63542 52.25 5.125C52.8021 5.60938 53.0885 6.27865 53.1094 7.13281V11.0234C53.1094 11.7995 53.2083 12.4167 53.4062 12.875V13H51.8906ZM49.4922 11.8984C49.9453 11.8984 50.375 11.7812 50.7812 11.5469C51.1875 11.3125 51.4818 11.0078 51.6641 10.6328V8.89844H50.5312C48.7604 8.89844 47.875 9.41667 47.875 10.4531C47.875 10.9062 48.026 11.2604 48.3281 11.5156C48.6302 11.7708 49.0182 11.8984 49.4922 11.8984ZM62.2812 13H60.8359V9.39062H56.9531V13H55.5V4.54688H56.9531V8.21094H60.8359V4.54688H62.2812V13ZM67.2422 9.39844H66.1875V13H64.7344V4.54688H66.1875V8.125H67.1328L69.9766 4.54688H71.7266L68.3828 8.60938L72.0078 13H70.1719L67.2422 9.39844Z" fill="#0EB757"/>
</svg>
